<?xml version="1.0" encoding="UTF-8" standalone="no"?>
<!DOCTYPE svg PUBLIC "-//W3C//DTD SVG 1.1//EN"
 "http://www.w3.org/Graphics/SVG/1.1/DTD/svg11.dtd">
<!-- Generated by graphviz version 2.47.1 (20210417.1919)
 -->
<!-- Title: state_machine Pages: 1 -->
<svg width="936pt" height="216pt"
 viewBox="0.00 0.00 936.00 216.47" xmlns="http://www.w3.org/2000/svg" xmlns:xlink="http://www.w3.org/1999/xlink">
<g id="graph0" class="graph" transform="scale(0.43 0.43) rotate(0) translate(4 502)">
<title>state_machine</title>
<polygon fill="white" stroke="transparent" points="-4,4 -4,-502 2183.87,-502 2183.87,4 -4,4"/>
<!-- InSession.False, ActiveTodos.0, ResolvedTodos.0 -->
<g id="node1" class="node">
<title>InSession.False, ActiveTodos.0, ResolvedTodos.0</title>
<ellipse fill="#f7f5eb" stroke="black" cx="78.49" cy="-156" rx="78.48" ry="37.45"/>
<text text-anchor="middle" x="78.49" y="-167.3" font-family="Times,serif" font-size="14.00">InSession.False</text>
<text text-anchor="middle" x="78.49" y="-152.3" font-family="Times,serif" font-size="14.00">ActiveTodos.0</text>
<text text-anchor="middle" x="78.49" y="-137.3" font-family="Times,serif" font-size="14.00">ResolvedTodos.0</text>
</g>
<!-- InSession.True, ActiveTodos.0, ResolvedTodos.0 -->
<g id="node2" class="node">
<title>InSession.True, ActiveTodos.0, ResolvedTodos.0</title>
<ellipse fill="#f7f5eb" stroke="black" cx="362.47" cy="-293" rx="78.48" ry="37.45"/>
<text text-anchor="middle" x="362.47" y="-304.3" font-family="Times,serif" font-size="14.00">InSession.True</text>
<text text-anchor="middle" x="362.47" y="-289.3" font-family="Times,serif" font-size="14.00">ActiveTodos.0</text>
<text text-anchor="middle" x="362.47" y="-274.3" font-family="Times,serif" font-size="14.00">ResolvedTodos.0</text>
</g>
<!-- InSession.False, ActiveTodos.0, ResolvedTodos.0&#45;&gt;InSession.True, ActiveTodos.0, ResolvedTodos.0 -->
<g id="edge25" class="edge">
<title>InSession.False, ActiveTodos.0, ResolvedTodos.0&#45;&gt;InSession.True, ActiveTodos.0, ResolvedTodos.0</title>
<path fill="none" stroke="black" d="M122.1,-187.23C138.08,-197.84 156.78,-209.02 174.98,-217 213.29,-233.79 227.11,-225.55 265.98,-241 278.68,-246.05 291.84,-252.4 304.18,-258.92"/>
<polygon fill="black" stroke="black" points="302.54,-262.01 313,-263.68 305.86,-255.85 302.54,-262.01"/>
<text text-anchor="middle" x="220.48" y="-244.8" font-family="Times,serif" font-size="14.00">Start Session (0)</text>
</g>
<!-- InSession.True, ActiveTodos.0, ResolvedTodos.0&#45;&gt;InSession.False, ActiveTodos.0, ResolvedTodos.0 -->
<g id="edge22" class="edge">
<title>InSession.True, ActiveTodos.0, ResolvedTodos.0&#45;&gt;InSession.False, ActiveTodos.0, ResolvedTodos.0</title>
<path fill="none" stroke="black" d="M283.78,-290.49C248.78,-286.61 207.99,-278.1 174.98,-260 148.77,-245.63 125.87,-221.36 109.07,-199.88"/>
<polygon fill="black" stroke="black" points="111.77,-197.65 102.93,-191.8 106.2,-201.88 111.77,-197.65"/>
<text text-anchor="middle" x="220.48" y="-290.8" font-family="Times,serif" font-size="14.00">End Session (0)</text>
</g>
<!-- InSession.True, ActiveTodos.0, ResolvedTodos.0&#45;&gt;InSession.True, ActiveTodos.0, ResolvedTodos.0 -->
<g id="edge29" class="edge">
<title>InSession.True, ActiveTodos.0, ResolvedTodos.0&#45;&gt;InSession.True, ActiveTodos.0, ResolvedTodos.0</title>
<path fill="none" stroke="black" d="M349.41,-330.07C349.98,-340.49 354.33,-348.48 362.47,-348.48 367.68,-348.48 371.34,-345.2 373.44,-340.1"/>
<polygon fill="black" stroke="black" points="376.92,-340.58 375.53,-330.07 370.07,-339.15 376.92,-340.58"/>
<text text-anchor="middle" x="362.47" y="-352.28" font-family="Times,serif" font-size="14.00">Resolve an Active Todo (0)</text>
</g>
<!-- InSession.True, ActiveTodos.0, ResolvedTodos.0&#45;&gt;InSession.True, ActiveTodos.0, ResolvedTodos.0 -->
<g id="edge31" class="edge">
<title>InSession.True, ActiveTodos.0, ResolvedTodos.0&#45;&gt;InSession.True, ActiveTodos.0, ResolvedTodos.0</title>
<path fill="none" stroke="black" d="M337.47,-328.53C332.81,-348.29 341.14,-366.48 362.47,-366.48 380.13,-366.48 388.88,-354 388.71,-338.5"/>
<polygon fill="black" stroke="black" points="392.18,-338.02 387.46,-328.53 385.24,-338.89 392.18,-338.02"/>
<text text-anchor="middle" x="362.47" y="-370.28" font-family="Times,serif" font-size="14.00">Get a Todo (0)</text>
</g>
<!-- InSession.True, ActiveTodos.1, ResolvedTodos.0 -->
<g id="node3" class="node">
<title>InSession.True, ActiveTodos.1, ResolvedTodos.0</title>
<ellipse fill="#f7f5eb" stroke="black" cx="2101.38" cy="-321" rx="78.48" ry="37.45"/>
<text text-anchor="middle" x="2101.38" y="-332.3" font-family="Times,serif" font-size="14.00">InSession.True</text>
<text text-anchor="middle" x="2101.38" y="-317.3" font-family="Times,serif" font-size="14.00">ActiveTodos.1</text>
<text text-anchor="middle" x="2101.38" y="-302.3" font-family="Times,serif" font-size="14.00">ResolvedTodos.0</text>
</g>
<!-- InSession.True, ActiveTodos.0, ResolvedTodos.0&#45;&gt;InSession.True, ActiveTodos.1, ResolvedTodos.0 -->
<g id="edge24" class="edge">
<title>InSession.True, ActiveTodos.0, ResolvedTodos.0&#45;&gt;InSession.True, ActiveTodos.1, ResolvedTodos.0</title>
<path fill="none" stroke="black" d="M384.61,-329.12C401.6,-355.16 427.74,-389.23 458.96,-410 554.08,-473.29 591.19,-483 705.44,-483 705.44,-483 705.44,-483 1766.4,-483 1874.27,-483 1912.17,-493.12 2004.89,-438 2034.02,-420.68 2058.08,-391.02 2074.76,-365.9"/>
<polygon fill="black" stroke="black" points="2077.87,-367.53 2080.35,-357.23 2071.99,-363.74 2077.87,-367.53"/>
<text text-anchor="middle" x="1227.91" y="-486.8" font-family="Times,serif" font-size="14.00">Add an Active Todo (0)</text>
</g>
<!-- InSession.True, ActiveTodos.0, ResolvedTodos.1 -->
<g id="node4" class="node">
<title>InSession.True, ActiveTodos.0, ResolvedTodos.1</title>
<ellipse fill="#f7f5eb" stroke="black" cx="706.44" cy="-257" rx="78.48" ry="37.45"/>
<text text-anchor="middle" x="706.44" y="-268.3" font-family="Times,serif" font-size="14.00">InSession.True</text>
<text text-anchor="middle" x="706.44" y="-253.3" font-family="Times,serif" font-size="14.00">ActiveTodos.0</text>
<text text-anchor="middle" x="706.44" y="-238.3" font-family="Times,serif" font-size="14.00">ResolvedTodos.1</text>
</g>
<!-- InSession.True, ActiveTodos.0, ResolvedTodos.0&#45;&gt;InSession.True, ActiveTodos.0, ResolvedTodos.1 -->
<g id="edge23" class="edge">
<title>InSession.True, ActiveTodos.0, ResolvedTodos.0&#45;&gt;InSession.True, ActiveTodos.0, ResolvedTodos.1</title>
<path fill="none" stroke="black" d="M440.22,-287.87C488.93,-284.26 553.25,-278.86 609.96,-272 613.87,-271.53 617.88,-271.01 621.92,-270.47"/>
<polygon fill="black" stroke="black" points="622.59,-273.91 632.01,-269.07 621.62,-266.98 622.59,-273.91"/>
<text text-anchor="middle" x="534.46" y="-289.8" font-family="Times,serif" font-size="14.00">Add a Resolved Todo (0)</text>
</g>
<!-- InSession.True, ActiveTodos.1, ResolvedTodos.0&#45;&gt;InSession.False, ActiveTodos.0, ResolvedTodos.0 -->
<g id="edge17" class="edge">
<title>InSession.True, ActiveTodos.1, ResolvedTodos.0&#45;&gt;InSession.False, ActiveTodos.0, ResolvedTodos.0</title>
<path fill="none" stroke="black" d="M2094.04,-283.66C2083.71,-233.37 2058.71,-143.89 2004.89,-89 1925.68,-8.22 1879.53,0 1766.4,0 361.47,0 361.47,0 361.47,0 266.21,0 172.93,-69 121.14,-115.22"/>
<polygon fill="black" stroke="black" points="118.55,-112.84 113.49,-122.15 123.25,-118.03 118.55,-112.84"/>
<text text-anchor="middle" x="1050.42" y="-3.8" font-family="Times,serif" font-size="14.00">End Session (0)</text>
</g>
<!-- InSession.True, ActiveTodos.1, ResolvedTodos.0&#45;&gt;InSession.True, ActiveTodos.0, ResolvedTodos.0 -->
<g id="edge19" class="edge">
<title>InSession.True, ActiveTodos.1, ResolvedTodos.0&#45;&gt;InSession.True, ActiveTodos.0, ResolvedTodos.0</title>
<path fill="none" stroke="black" d="M2069.6,-355.55C2052.3,-372.81 2029.3,-392.42 2004.89,-404 1907.72,-450.09 1873.95,-445 1766.4,-445 705.44,-445 705.44,-445 705.44,-445 593.21,-445 476.73,-375.79 412.84,-330.77"/>
<polygon fill="black" stroke="black" points="414.73,-327.82 404.56,-324.86 410.66,-333.52 414.73,-327.82"/>
<text text-anchor="middle" x="1227.91" y="-448.8" font-family="Times,serif" font-size="14.00">Delete an Active Todo (0)</text>
</g>
<!-- InSession.True, ActiveTodos.1, ResolvedTodos.0&#45;&gt;InSession.True, ActiveTodos.1, ResolvedTodos.0 -->
<g id="edge30" class="edge">
<title>InSession.True, ActiveTodos.1, ResolvedTodos.0&#45;&gt;InSession.True, ActiveTodos.1, ResolvedTodos.0</title>
<path fill="none" stroke="black" d="M2070.25,-355.67C2070.25,-367.23 2080.63,-376.48 2101.38,-376.48 2115.64,-376.48 2125,-372.11 2129.46,-365.62"/>
<polygon fill="black" stroke="black" points="2132.93,-366.26 2132.5,-355.67 2126.23,-364.21 2132.93,-366.26"/>
<text text-anchor="middle" x="2101.38" y="-380.28" font-family="Times,serif" font-size="14.00">Get Todos List (0)</text>
</g>
<!-- InSession.True, ActiveTodos.1, ResolvedTodos.0&#45;&gt;InSession.True, ActiveTodos.0, ResolvedTodos.1 -->
<g id="edge18" class="edge">
<title>InSession.True, ActiveTodos.1, ResolvedTodos.0&#45;&gt;InSession.True, ActiveTodos.0, ResolvedTodos.1</title>
<path fill="none" stroke="black" d="M2033.18,-339.81C2023.74,-341.89 2014.12,-343.71 2004.89,-345 1933.99,-354.89 1915.47,-348.89 1843.89,-350 1455.79,-356.02 1358.97,-330.29 971.93,-301 896.78,-295.31 876.89,-301.5 802.93,-287 795.44,-285.53 787.7,-283.68 780.03,-281.63"/>
<polygon fill="black" stroke="black" points="780.94,-278.25 770.37,-278.93 779.06,-284.99 780.94,-278.25"/>
<text text-anchor="middle" x="1407.91" y="-347.8" font-family="Times,serif" font-size="14.00">Resolve an Active Todo (0)</text>
</g>
<!-- InSession.True, ActiveTodos.2, ResolvedTodos.0 -->
<g id="node5" class="node">
<title>InSession.True, ActiveTodos.2, ResolvedTodos.0</title>
<ellipse fill="#f7f5eb" stroke="black" cx="1765.4" cy="-65" rx="78.48" ry="37.45"/>
<text text-anchor="middle" x="1765.4" y="-76.3" font-family="Times,serif" font-size="14.00">InSession.True</text>
<text text-anchor="middle" x="1765.4" y="-61.3" font-family="Times,serif" font-size="14.00">ActiveTodos.2</text>
<text text-anchor="middle" x="1765.4" y="-46.3" font-family="Times,serif" font-size="14.00">ResolvedTodos.0</text>
</g>
<!-- InSession.True, ActiveTodos.1, ResolvedTodos.0&#45;&gt;InSession.True, ActiveTodos.2, ResolvedTodos.0 -->
<g id="edge21" class="edge">
<title>InSession.True, ActiveTodos.1, ResolvedTodos.0&#45;&gt;InSession.True, ActiveTodos.2, ResolvedTodos.0</title>
<path fill="none" stroke="black" d="M2065.71,-287.33C2048.43,-271.8 2026.61,-253.97 2004.89,-241 1946.15,-205.92 1916.89,-224.69 1861.89,-184 1834.65,-163.85 1810.79,-134.12 1793.73,-109.42"/>
<polygon fill="black" stroke="black" points="1796.49,-107.25 1787.99,-100.92 1790.69,-111.17 1796.49,-107.25"/>
<text text-anchor="middle" x="1933.39" y="-244.8" font-family="Times,serif" font-size="14.00">Add an Active Todo (0)</text>
</g>
<!-- InSession.True, ActiveTodos.1, ResolvedTodos.1 -->
<g id="node6" class="node">
<title>InSession.True, ActiveTodos.1, ResolvedTodos.1</title>
<ellipse fill="#f7f5eb" stroke="black" cx="1407.91" cy="-222" rx="78.48" ry="37.45"/>
<text text-anchor="middle" x="1407.91" y="-233.3" font-family="Times,serif" font-size="14.00">InSession.True</text>
<text text-anchor="middle" x="1407.91" y="-218.3" font-family="Times,serif" font-size="14.00">ActiveTodos.1</text>
<text text-anchor="middle" x="1407.91" y="-203.3" font-family="Times,serif" font-size="14.00">ResolvedTodos.1</text>
</g>
<!-- InSession.True, ActiveTodos.1, ResolvedTodos.0&#45;&gt;InSession.True, ActiveTodos.1, ResolvedTodos.1 -->
<g id="edge20" class="edge">
<title>InSession.True, ActiveTodos.1, ResolvedTodos.0&#45;&gt;InSession.True, ActiveTodos.1, ResolvedTodos.1</title>
<path fill="none" stroke="black" d="M2025.95,-310.34C1896.23,-291.77 1629.57,-253.59 1493.22,-234.07"/>
<polygon fill="black" stroke="black" points="1493.63,-230.59 1483.24,-232.64 1492.64,-237.52 1493.63,-230.59"/>
<text text-anchor="middle" x="1765.4" y="-285.8" font-family="Times,serif" font-size="14.00">Add a Resolved Todo (0)</text>
</g>
<!-- InSession.True, ActiveTodos.0, ResolvedTodos.1&#45;&gt;InSession.False, ActiveTodos.0, ResolvedTodos.0 -->
<g id="edge12" class="edge">
<title>InSession.True, ActiveTodos.0, ResolvedTodos.1&#45;&gt;InSession.False, ActiveTodos.0, ResolvedTodos.0</title>
<path fill="none" stroke="black" d="M631.59,-245.08C514.37,-226.17 286.42,-189.39 163.27,-169.52"/>
<polygon fill="black" stroke="black" points="163.56,-166.02 153.13,-167.88 162.45,-172.93 163.56,-166.02"/>
<text text-anchor="middle" x="362.47" y="-216.8" font-family="Times,serif" font-size="14.00">End Session (0)</text>
</g>
<!-- InSession.True, ActiveTodos.0, ResolvedTodos.1&#45;&gt;InSession.True, ActiveTodos.0, ResolvedTodos.0 -->
<g id="edge14" class="edge">
<title>InSession.True, ActiveTodos.0, ResolvedTodos.1&#45;&gt;InSession.True, ActiveTodos.0, ResolvedTodos.0</title>
<path fill="none" stroke="black" d="M629.3,-250C580.26,-247.2 515.37,-246.72 458.96,-257 449.51,-258.72 439.79,-261.33 430.33,-264.36"/>
<polygon fill="black" stroke="black" points="428.93,-261.14 420.58,-267.67 431.18,-267.77 428.93,-261.14"/>
<text text-anchor="middle" x="534.46" y="-260.8" font-family="Times,serif" font-size="14.00">Delete a Resolved Todo (0)</text>
</g>
<!-- InSession.True, ActiveTodos.0, ResolvedTodos.1&#45;&gt;InSession.True, ActiveTodos.1, ResolvedTodos.0 -->
<g id="edge13" class="edge">
<title>InSession.True, ActiveTodos.0, ResolvedTodos.1&#45;&gt;InSession.True, ActiveTodos.1, ResolvedTodos.0</title>
<path fill="none" stroke="black" d="M729.35,-292.86C746.29,-317.32 772.04,-348.21 802.93,-365 900.26,-417.91 938.64,-402 1049.42,-402 1049.42,-402 1049.42,-402 1766.4,-402 1872.93,-402 1903.74,-411.43 2004.89,-378 2019.78,-373.08 2034.83,-365.54 2048.44,-357.55"/>
<polygon fill="black" stroke="black" points="2050.43,-360.43 2057.16,-352.25 2046.8,-354.45 2050.43,-360.43"/>
<text text-anchor="middle" x="1407.91" y="-405.8" font-family="Times,serif" font-size="14.00">Activate a Resolved Todo (0)</text>
</g>
<!-- InSession.True, ActiveTodos.0, ResolvedTodos.1&#45;&gt;InSession.True, ActiveTodos.0, ResolvedTodos.1 -->
<g id="edge26" class="edge">
<title>InSession.True, ActiveTodos.0, ResolvedTodos.1&#45;&gt;InSession.True, ActiveTodos.0, ResolvedTodos.1</title>
<path fill="none" stroke="black" d="M674.57,-291.4C674.4,-303.09 685.03,-312.48 706.44,-312.48 721.17,-312.48 730.79,-308.04 735.31,-301.47"/>
<polygon fill="black" stroke="black" points="738.81,-301.98 738.32,-291.4 732.1,-299.98 738.81,-301.98"/>
<text text-anchor="middle" x="706.44" y="-316.28" font-family="Times,serif" font-size="14.00">Delete an Active Todo (0)</text>
</g>
<!-- InSession.True, ActiveTodos.0, ResolvedTodos.1&#45;&gt;InSession.True, ActiveTodos.1, ResolvedTodos.1 -->
<g id="edge16" class="edge">
<title>InSession.True, ActiveTodos.0, ResolvedTodos.1&#45;&gt;InSession.True, ActiveTodos.1, ResolvedTodos.1</title>
<path fill="none" stroke="black" d="M782.44,-266.38C789.36,-267.02 796.27,-267.58 802.93,-268 1027.46,-282.22 1088.43,-297.75 1308.91,-253 1317.3,-251.3 1325.98,-249.15 1334.55,-246.77"/>
<polygon fill="black" stroke="black" points="1335.52,-250.13 1344.17,-244.01 1333.59,-243.41 1335.52,-250.13"/>
<text text-anchor="middle" x="1050.42" y="-285.8" font-family="Times,serif" font-size="14.00">Add an Active Todo (0)</text>
</g>
<!-- InSession.True, ActiveTodos.0, ResolvedTodos.2 -->
<g id="node7" class="node">
<title>InSession.True, ActiveTodos.0, ResolvedTodos.2</title>
<ellipse fill="#f7f5eb" stroke="black" cx="1050.42" cy="-184" rx="78.48" ry="37.45"/>
<text text-anchor="middle" x="1050.42" y="-195.3" font-family="Times,serif" font-size="14.00">InSession.True</text>
<text text-anchor="middle" x="1050.42" y="-180.3" font-family="Times,serif" font-size="14.00">ActiveTodos.0</text>
<text text-anchor="middle" x="1050.42" y="-165.3" font-family="Times,serif" font-size="14.00">ResolvedTodos.2</text>
</g>
<!-- InSession.True, ActiveTodos.0, ResolvedTodos.1&#45;&gt;InSession.True, ActiveTodos.0, ResolvedTodos.2 -->
<g id="edge15" class="edge">
<title>InSession.True, ActiveTodos.0, ResolvedTodos.1&#45;&gt;InSession.True, ActiveTodos.0, ResolvedTodos.2</title>
<path fill="none" stroke="black" d="M741.5,-223.36C758.48,-208.92 780.21,-193.62 802.93,-186 854.92,-168.56 916.62,-168.07 965.28,-171.94"/>
<polygon fill="black" stroke="black" points="965.19,-175.45 975.46,-172.83 965.8,-168.48 965.19,-175.45"/>
<text text-anchor="middle" x="878.43" y="-189.8" font-family="Times,serif" font-size="14.00">Add a Resolved Todo (0)</text>
</g>
<!-- InSession.True, ActiveTodos.2, ResolvedTodos.0&#45;&gt;InSession.False, ActiveTodos.0, ResolvedTodos.0 -->
<g id="edge9" class="edge">
<title>InSession.True, ActiveTodos.2, ResolvedTodos.0&#45;&gt;InSession.False, ActiveTodos.0, ResolvedTodos.0</title>
<path fill="none" stroke="black" d="M1686.73,-65.34C1614.71,-65.63 1504.57,-66 1408.91,-66 361.47,-66 361.47,-66 361.47,-66 282.61,-66 196.97,-98.34 141.01,-124.25"/>
<polygon fill="black" stroke="black" points="139.51,-121.09 131.95,-128.51 142.49,-127.42 139.51,-121.09"/>
<text text-anchor="middle" x="878.43" y="-69.8" font-family="Times,serif" font-size="14.00">End Session (0)</text>
</g>
<!-- InSession.True, ActiveTodos.2, ResolvedTodos.0&#45;&gt;InSession.True, ActiveTodos.1, ResolvedTodos.0 -->
<g id="edge11" class="edge">
<title>InSession.True, ActiveTodos.2, ResolvedTodos.0&#45;&gt;InSession.True, ActiveTodos.1, ResolvedTodos.0</title>
<path fill="none" stroke="black" d="M1834.56,-82.77C1885.81,-98.78 1955.41,-126.43 2004.89,-169 2038.57,-197.98 2064.36,-241.84 2080.59,-275.01"/>
<polygon fill="black" stroke="black" points="2077.45,-276.54 2084.92,-284.06 2083.76,-273.52 2077.45,-276.54"/>
<text text-anchor="middle" x="1933.39" y="-172.8" font-family="Times,serif" font-size="14.00">Delete an Active Todo (0)</text>
</g>
<!-- InSession.True, ActiveTodos.2, ResolvedTodos.0&#45;&gt;InSession.True, ActiveTodos.2, ResolvedTodos.0 -->
<g id="edge27" class="edge">
<title>InSession.True, ActiveTodos.2, ResolvedTodos.0&#45;&gt;InSession.True, ActiveTodos.2, ResolvedTodos.0</title>
<path fill="none" stroke="black" d="M1757.67,-102.34C1758.04,-112.62 1760.62,-120.48 1765.4,-120.48 1768.39,-120.48 1770.52,-117.41 1771.78,-112.59"/>
<polygon fill="black" stroke="black" points="1775.3,-112.71 1773.13,-102.34 1768.36,-111.79 1775.3,-112.71"/>
<text text-anchor="middle" x="1765.4" y="-124.28" font-family="Times,serif" font-size="14.00">Delete a Resolved Todo (0)</text>
</g>
<!-- InSession.True, ActiveTodos.2, ResolvedTodos.0&#45;&gt;InSession.True, ActiveTodos.2, ResolvedTodos.0 -->
<g id="edge28" class="edge">
<title>InSession.True, ActiveTodos.2, ResolvedTodos.0&#45;&gt;InSession.True, ActiveTodos.2, ResolvedTodos.0</title>
<path fill="none" stroke="black" d="M1750.38,-102.05C1748.07,-121.21 1753.08,-138.48 1765.4,-138.48 1775.51,-138.48 1780.69,-126.86 1780.95,-112.11"/>
<polygon fill="black" stroke="black" points="1784.44,-111.85 1780.42,-102.05 1777.45,-112.22 1784.44,-111.85"/>
<text text-anchor="middle" x="1765.4" y="-142.28" font-family="Times,serif" font-size="14.00">Activate a Resolved Todo (0)</text>
</g>
<!-- InSession.True, ActiveTodos.2, ResolvedTodos.0&#45;&gt;InSession.True, ActiveTodos.2, ResolvedTodos.0 -->
<g id="edge32" class="edge">
<title>InSession.True, ActiveTodos.2, ResolvedTodos.0&#45;&gt;InSession.True, ActiveTodos.2, ResolvedTodos.0</title>
<path fill="none" stroke="black" d="M1744.81,-101.63C1737.63,-128.95 1744.49,-156.48 1765.4,-156.48 1783.78,-156.48 1791.31,-135.21 1787.98,-111.52"/>
<polygon fill="black" stroke="black" points="1791.39,-110.74 1785.99,-101.63 1784.53,-112.13 1791.39,-110.74"/>
<text text-anchor="middle" x="1765.4" y="-160.28" font-family="Times,serif" font-size="14.00">Edit a Todo (0)</text>
</g>
<!-- InSession.True, ActiveTodos.2, ResolvedTodos.0&#45;&gt;InSession.True, ActiveTodos.2, ResolvedTodos.0 -->
<g id="edge33" class="edge">
<title>InSession.True, ActiveTodos.2, ResolvedTodos.0&#45;&gt;InSession.True, ActiveTodos.2, ResolvedTodos.0</title>
<path fill="none" stroke="black" d="M1740.78,-100.6C1726.96,-135.74 1735.17,-174.48 1765.4,-174.48 1792.92,-174.48 1802.19,-142.39 1793.21,-110.13"/>
<polygon fill="black" stroke="black" points="1796.52,-108.97 1790.02,-100.6 1789.88,-111.19 1796.52,-108.97"/>
<text text-anchor="middle" x="1765.4" y="-178.28" font-family="Times,serif" font-size="14.00">Add an Active Todo (0)</text>
</g>
<!-- InSession.True, ActiveTodos.2, ResolvedTodos.0&#45;&gt;InSession.True, ActiveTodos.1, ResolvedTodos.1 -->
<g id="edge10" class="edge">
<title>InSession.True, ActiveTodos.2, ResolvedTodos.0&#45;&gt;InSession.True, ActiveTodos.1, ResolvedTodos.1</title>
<path fill="none" stroke="black" d="M1691.74,-78.24C1638.43,-89.86 1565.45,-109.86 1506.91,-141 1486.81,-151.69 1467.01,-166.91 1450.51,-181.28"/>
<polygon fill="black" stroke="black" points="1447.84,-178.98 1442.7,-188.24 1452.49,-184.2 1447.84,-178.98"/>
<text text-anchor="middle" x="1587.91" y="-144.8" font-family="Times,serif" font-size="14.00">Resolve an Active Todo (0)</text>
</g>
<!-- InSession.True, ActiveTodos.1, ResolvedTodos.1&#45;&gt;InSession.False, ActiveTodos.0, ResolvedTodos.0 -->
<g id="edge4" class="edge">
<title>InSession.True, ActiveTodos.1, ResolvedTodos.1&#45;&gt;InSession.False, ActiveTodos.0, ResolvedTodos.0</title>
<path fill="none" stroke="black" d="M1357.43,-193.09C1342.24,-185.08 1325.21,-176.96 1308.91,-171 1198.74,-130.7 1168.73,-113 1051.42,-113 361.47,-113 361.47,-113 361.47,-113 292.56,-113 215.26,-125.7 159.04,-137.3"/>
<polygon fill="black" stroke="black" points="158.22,-133.9 149.15,-139.38 159.65,-140.75 158.22,-133.9"/>
<text text-anchor="middle" x="706.44" y="-116.8" font-family="Times,serif" font-size="14.00">End Session (0)</text>
</g>
<!-- InSession.True, ActiveTodos.1, ResolvedTodos.1&#45;&gt;InSession.True, ActiveTodos.1, ResolvedTodos.0 -->
<g id="edge7" class="edge">
<title>InSession.True, ActiveTodos.1, ResolvedTodos.1&#45;&gt;InSession.True, ActiveTodos.1, ResolvedTodos.0</title>
<path fill="none" stroke="black" d="M1449.51,-254.14C1466.32,-265.67 1486.61,-277.43 1506.91,-284 1680.12,-340.09 1896.33,-336.46 2014.09,-328.77"/>
<polygon fill="black" stroke="black" points="2014.4,-332.26 2024.14,-328.09 2013.92,-325.27 2014.4,-332.26"/>
<text text-anchor="middle" x="1765.4" y="-335.8" font-family="Times,serif" font-size="14.00">Delete a Resolved Todo (0)</text>
</g>
<!-- InSession.True, ActiveTodos.1, ResolvedTodos.1&#45;&gt;InSession.True, ActiveTodos.0, ResolvedTodos.1 -->
<g id="edge8" class="edge">
<title>InSession.True, ActiveTodos.1, ResolvedTodos.1&#45;&gt;InSession.True, ActiveTodos.0, ResolvedTodos.1</title>
<path fill="none" stroke="black" d="M1332.07,-231.82C1324.26,-232.65 1316.43,-233.4 1308.91,-234 1126.66,-248.62 912.57,-254 795.3,-255.94"/>
<polygon fill="black" stroke="black" points="794.89,-252.45 784.95,-256.11 795,-259.44 794.89,-252.45"/>
<text text-anchor="middle" x="1050.42" y="-254.8" font-family="Times,serif" font-size="14.00">Delete an Active Todo (0)</text>
</g>
<!-- InSession.True, ActiveTodos.1, ResolvedTodos.1&#45;&gt;InSession.True, ActiveTodos.2, ResolvedTodos.0 -->
<g id="edge6" class="edge">
<title>InSession.True, ActiveTodos.1, ResolvedTodos.1&#45;&gt;InSession.True, ActiveTodos.2, ResolvedTodos.0</title>
<path fill="none" stroke="black" d="M1485.15,-214.91C1539.21,-207.32 1611.96,-191.74 1668.91,-160 1692.32,-146.95 1713.92,-126.54 1730.62,-107.98"/>
<polygon fill="black" stroke="black" points="1733.51,-109.99 1737.47,-100.16 1728.25,-105.38 1733.51,-109.99"/>
<text text-anchor="middle" x="1587.91" y="-213.8" font-family="Times,serif" font-size="14.00">Activate a Resolved Todo (0)</text>
</g>
<!-- InSession.True, ActiveTodos.1, ResolvedTodos.1&#45;&gt;InSession.True, ActiveTodos.1, ResolvedTodos.1 -->
<g id="edge34" class="edge">
<title>InSession.True, ActiveTodos.1, ResolvedTodos.1&#45;&gt;InSession.True, ActiveTodos.1, ResolvedTodos.1</title>
<path fill="none" stroke="black" d="M1374.18,-255.86C1373.64,-267.79 1384.88,-277.48 1407.91,-277.48 1424.1,-277.48 1434.47,-272.69 1439.01,-265.7"/>
<polygon fill="black" stroke="black" points="1442.44,-266.42 1441.64,-255.86 1435.67,-264.61 1442.44,-266.42"/>
<text text-anchor="middle" x="1407.91" y="-281.28" font-family="Times,serif" font-size="14.00">Add a Resolved Todo (0)</text>
</g>
<!-- InSession.True, ActiveTodos.1, ResolvedTodos.1&#45;&gt;InSession.True, ActiveTodos.0, ResolvedTodos.2 -->
<g id="edge5" class="edge">
<title>InSession.True, ActiveTodos.1, ResolvedTodos.1&#45;&gt;InSession.True, ActiveTodos.0, ResolvedTodos.2</title>
<path fill="none" stroke="black" d="M1329.95,-217.14C1278.11,-213.46 1208.26,-207.72 1146.91,-200 1142.78,-199.48 1138.56,-198.91 1134.3,-198.31"/>
<polygon fill="black" stroke="black" points="1134.72,-194.83 1124.32,-196.84 1133.71,-201.76 1134.72,-194.83"/>
<text text-anchor="middle" x="1227.91" y="-218.8" font-family="Times,serif" font-size="14.00">Resolve an Active Todo (0)</text>
</g>
<!-- InSession.True, ActiveTodos.0, ResolvedTodos.2&#45;&gt;InSession.False, ActiveTodos.0, ResolvedTodos.0 -->
<g id="edge1" class="edge">
<title>InSession.True, ActiveTodos.0, ResolvedTodos.2&#45;&gt;InSession.False, ActiveTodos.0, ResolvedTodos.0</title>
<path fill="none" stroke="black" d="M975.76,-172.23C968.4,-171.34 961.03,-170.57 953.93,-170 666.65,-146.74 324.59,-150.28 166.97,-153.66"/>
<polygon fill="black" stroke="black" points="166.77,-150.16 156.85,-153.88 166.93,-157.16 166.77,-150.16"/>
<text text-anchor="middle" x="534.46" y="-156.8" font-family="Times,serif" font-size="14.00">End Session (0)</text>
</g>
<!-- InSession.True, ActiveTodos.0, ResolvedTodos.2&#45;&gt;InSession.True, ActiveTodos.0, ResolvedTodos.1 -->
<g id="edge3" class="edge">
<title>InSession.True, ActiveTodos.0, ResolvedTodos.2&#45;&gt;InSession.True, ActiveTodos.0, ResolvedTodos.1</title>
<path fill="none" stroke="black" d="M979.39,-199.95C970.83,-201.74 962.19,-203.46 953.93,-205 887.19,-217.41 869.14,-212.99 802.93,-228 795.96,-229.58 788.76,-231.4 781.58,-233.35"/>
<polygon fill="black" stroke="black" points="780.52,-230.02 771.83,-236.08 782.4,-236.76 780.52,-230.02"/>
<text text-anchor="middle" x="878.43" y="-231.8" font-family="Times,serif" font-size="14.00">Delete a Resolved Todo (0)</text>
</g>
<!-- InSession.True, ActiveTodos.0, ResolvedTodos.2&#45;&gt;InSession.True, ActiveTodos.1, ResolvedTodos.1 -->
<g id="edge2" class="edge">
<title>InSession.True, ActiveTodos.0, ResolvedTodos.2&#45;&gt;InSession.True, ActiveTodos.1, ResolvedTodos.1</title>
<path fill="none" stroke="black" d="M1127.85,-177.23C1179.43,-174.38 1248.79,-173.91 1308.91,-185 1319.21,-186.9 1329.84,-189.82 1340.12,-193.2"/>
<polygon fill="black" stroke="black" points="1339.26,-196.61 1349.85,-196.57 1341.55,-189.99 1339.26,-196.61"/>
<text text-anchor="middle" x="1227.91" y="-188.8" font-family="Times,serif" font-size="14.00">Activate a Resolved Todo (0)</text>
</g>
</g>
</svg>
