<?xml version="1.0" encoding="UTF-8" standalone="no"?>
<!DOCTYPE svg PUBLIC "-//W3C//DTD SVG 1.1//EN"
 "http://www.w3.org/Graphics/SVG/1.1/DTD/svg11.dtd">
<!-- Generated by graphviz version 2.47.1 (20210417.1919)
 -->
<!-- Title: state_machine Pages: 1 -->
<svg width="936pt" height="139pt"
 viewBox="0.00 0.00 936.00 139.23" xmlns="http://www.w3.org/2000/svg" xmlns:xlink="http://www.w3.org/1999/xlink">
<g id="graph0" class="graph" transform="scale(0.87 0.87) rotate(0) translate(4 156.74)">
<title>state_machine</title>
<polygon fill="white" stroke="transparent" points="-4,4 -4,-156.74 1076.62,-156.74 1076.62,4 -4,4"/>
<!-- Running.False, Todos.0 -->
<g id="node1" class="node">
<title>Running.False, Todos.0</title>
<ellipse fill="#f7f5eb" stroke="black" cx="67.18" cy="-26.87" rx="67.35" ry="26.74"/>
<text text-anchor="middle" x="67.18" y="-30.67" font-family="Times,serif" font-size="14.00">Running.False</text>
<text text-anchor="middle" x="67.18" y="-15.67" font-family="Times,serif" font-size="14.00">Todos.0</text>
</g>
<!-- Running.True, Todos.0 -->
<g id="node2" class="node">
<title>Running.True, Todos.0</title>
<ellipse fill="#f7f5eb" stroke="black" cx="395.4" cy="-26.87" rx="65.11" ry="26.74"/>
<text text-anchor="middle" x="395.4" y="-30.67" font-family="Times,serif" font-size="14.00">Running.True</text>
<text text-anchor="middle" x="395.4" y="-15.67" font-family="Times,serif" font-size="14.00">Todos.0</text>
</g>
<!-- Running.False, Todos.0&#45;&gt;Running.True, Todos.0 -->
<g id="edge5" class="edge">
<title>Running.False, Todos.0&#45;&gt;Running.True, Todos.0</title>
<path fill="none" stroke="black" d="M134.59,-26.87C188.43,-26.87 264.27,-26.87 320.12,-26.87"/>
<polygon fill="black" stroke="black" points="320.31,-30.37 330.31,-26.87 320.31,-23.37 320.31,-30.37"/>
<text text-anchor="middle" x="232.35" y="-30.67" font-family="Times,serif" font-size="14.00">java &#45;jar apichallenges.jar (0)</text>
</g>
<!-- Running.True, Todos.0&#45;&gt;Running.True, Todos.0 -->
<g id="edge6" class="edge">
<title>Running.True, Todos.0&#45;&gt;Running.True, Todos.0</title>
<path fill="none" stroke="black" d="M386.3,-53.59C386,-63.54 389.04,-71.74 395.4,-71.74 399.38,-71.74 402.06,-68.54 403.44,-63.71"/>
<polygon fill="black" stroke="black" points="406.94,-63.9 404.51,-53.59 399.98,-63.16 406.94,-63.9"/>
<text text-anchor="middle" x="395.4" y="-75.54" font-family="Times,serif" font-size="14.00">DeleteTodoById (0)</text>
</g>
<!-- Running.True, Todos.0&#45;&gt;Running.True, Todos.0 -->
<g id="edge8" class="edge">
<title>Running.True, Todos.0&#45;&gt;Running.True, Todos.0</title>
<path fill="none" stroke="black" d="M379.03,-53.03C373.88,-71.47 379.34,-89.74 395.4,-89.74 408.46,-89.74 414.51,-77.68 413.56,-63.27"/>
<polygon fill="black" stroke="black" points="416.94,-62.28 411.78,-53.03 410.04,-63.48 416.94,-62.28"/>
<text text-anchor="middle" x="395.4" y="-93.54" font-family="Times,serif" font-size="14.00">GetTodoFromId (0)</text>
</g>
<!-- Running.True, Todos.0&#45;&gt;Running.True, Todos.0 -->
<g id="edge11" class="edge">
<title>Running.True, Todos.0&#45;&gt;Running.True, Todos.0</title>
<path fill="none" stroke="black" d="M374.04,-52.54C361.48,-78.66 368.6,-107.74 395.4,-107.74 418.96,-107.74 427.32,-85.28 420.46,-62.1"/>
<polygon fill="black" stroke="black" points="423.64,-60.61 416.76,-52.54 417.11,-63.13 423.64,-60.61"/>
<text text-anchor="middle" x="395.4" y="-111.54" font-family="Times,serif" font-size="14.00">AmendTodoByIdPutMethod (0)</text>
</g>
<!-- Running.True, Todos.1 -->
<g id="node3" class="node">
<title>Running.True, Todos.1</title>
<ellipse fill="#f7f5eb" stroke="black" cx="688.51" cy="-26.87" rx="65.11" ry="26.74"/>
<text text-anchor="middle" x="688.51" y="-30.67" font-family="Times,serif" font-size="14.00">Running.True</text>
<text text-anchor="middle" x="688.51" y="-15.67" font-family="Times,serif" font-size="14.00">Todos.1</text>
</g>
<!-- Running.True, Todos.0&#45;&gt;Running.True, Todos.1 -->
<g id="edge4" class="edge">
<title>Running.True, Todos.0&#45;&gt;Running.True, Todos.1</title>
<path fill="none" stroke="black" d="M460.65,-26.87C505.73,-26.87 566.13,-26.87 613.28,-26.87"/>
<polygon fill="black" stroke="black" points="613.43,-30.37 623.43,-26.87 613.43,-23.37 613.43,-30.37"/>
<text text-anchor="middle" x="541.96" y="-30.67" font-family="Times,serif" font-size="14.00">AddTodoWithoutId (0)</text>
</g>
<!-- Running.True, Todos.1&#45;&gt;Running.True, Todos.0 -->
<g id="edge2" class="edge">
<title>Running.True, Todos.1&#45;&gt;Running.True, Todos.0</title>
<path fill="none" stroke="black" d="M632.61,-13.12C623.59,-11.35 614.3,-9.83 605.46,-8.87 549.34,-2.79 534.57,-2.79 478.46,-8.87 472.93,-9.47 467.23,-10.29 461.53,-11.25"/>
<polygon fill="black" stroke="black" points="460.51,-7.88 451.31,-13.12 461.77,-14.76 460.51,-7.88"/>
<text text-anchor="middle" x="541.96" y="-12.67" font-family="Times,serif" font-size="14.00">DeleteTodoById (0)</text>
</g>
<!-- Running.True, Todos.1&#45;&gt;Running.True, Todos.1 -->
<g id="edge7" class="edge">
<title>Running.True, Todos.1&#45;&gt;Running.True, Todos.1</title>
<path fill="none" stroke="black" d="M674.85,-53.59C674.41,-63.54 678.96,-71.74 688.51,-71.74 694.48,-71.74 698.5,-68.54 700.56,-63.71"/>
<polygon fill="black" stroke="black" points="704.06,-64.01 702.17,-53.59 697.15,-62.92 704.06,-64.01"/>
<text text-anchor="middle" x="688.51" y="-75.54" font-family="Times,serif" font-size="14.00">GetTodosList (0)</text>
</g>
<!-- Running.True, Todos.1&#45;&gt;Running.True, Todos.1 -->
<g id="edge9" class="edge">
<title>Running.True, Todos.1&#45;&gt;Running.True, Todos.1</title>
<path fill="none" stroke="black" d="M664.37,-52.05C655.94,-70.82 663.99,-89.74 688.51,-89.74 708.82,-89.74 717.83,-76.76 715.54,-61.64"/>
<polygon fill="black" stroke="black" points="718.88,-60.62 712.65,-52.05 712.18,-62.63 718.88,-60.62"/>
<text text-anchor="middle" x="688.51" y="-93.54" font-family="Times,serif" font-size="14.00">GetHeadersOfTodoFromId (0)</text>
</g>
<!-- Running.True, Todos.2 -->
<g id="node4" class="node">
<title>Running.True, Todos.2</title>
<ellipse fill="#f7f5eb" stroke="black" cx="981.62" cy="-26.87" rx="65.11" ry="26.74"/>
<text text-anchor="middle" x="981.62" y="-30.67" font-family="Times,serif" font-size="14.00">Running.True</text>
<text text-anchor="middle" x="981.62" y="-15.67" font-family="Times,serif" font-size="14.00">Todos.2</text>
</g>
<!-- Running.True, Todos.1&#45;&gt;Running.True, Todos.2 -->
<g id="edge3" class="edge">
<title>Running.True, Todos.1&#45;&gt;Running.True, Todos.2</title>
<path fill="none" stroke="black" d="M753.76,-26.87C798.84,-26.87 859.24,-26.87 906.39,-26.87"/>
<polygon fill="black" stroke="black" points="906.54,-30.37 916.54,-26.87 906.54,-23.37 906.54,-30.37"/>
<text text-anchor="middle" x="835.07" y="-30.67" font-family="Times,serif" font-size="14.00">AddTodoWithoutId (0)</text>
</g>
<!-- Running.True, Todos.2&#45;&gt;Running.True, Todos.1 -->
<g id="edge1" class="edge">
<title>Running.True, Todos.2&#45;&gt;Running.True, Todos.1</title>
<path fill="none" stroke="black" d="M925.72,-13.12C916.7,-11.35 907.41,-9.83 898.57,-8.87 842.45,-2.79 827.68,-2.79 771.57,-8.87 766.04,-9.47 760.34,-10.29 754.64,-11.25"/>
<polygon fill="black" stroke="black" points="753.62,-7.88 744.41,-13.12 754.88,-14.76 753.62,-7.88"/>
<text text-anchor="middle" x="835.07" y="-12.67" font-family="Times,serif" font-size="14.00">DeleteTodoById (0)</text>
</g>
<!-- Running.True, Todos.2&#45;&gt;Running.True, Todos.2 -->
<g id="edge10" class="edge">
<title>Running.True, Todos.2&#45;&gt;Running.True, Todos.2</title>
<path fill="none" stroke="black" d="M967.96,-53.59C967.51,-63.54 972.07,-71.74 981.62,-71.74 987.59,-71.74 991.61,-68.54 993.67,-63.71"/>
<polygon fill="black" stroke="black" points="997.17,-64.01 995.28,-53.59 990.25,-62.92 997.17,-64.01"/>
<text text-anchor="middle" x="981.62" y="-75.54" font-family="Times,serif" font-size="14.00">AmendTodoByIdPostMethod (0)</text>
</g>
<!-- Running.True, Todos.2&#45;&gt;Running.True, Todos.2 -->
<g id="edge12" class="edge">
<title>Running.True, Todos.2&#45;&gt;Running.True, Todos.2</title>
<path fill="none" stroke="black" d="M957.48,-52.05C949.05,-70.82 957.1,-89.74 981.62,-89.74 1001.93,-89.74 1010.94,-76.76 1008.65,-61.64"/>
<polygon fill="black" stroke="black" points="1011.99,-60.62 1005.76,-52.05 1005.29,-62.63 1011.99,-60.62"/>
<text text-anchor="middle" x="981.62" y="-93.54" font-family="Times,serif" font-size="14.00">AddTodoWithoutId (0)</text>
</g>
</g>
</svg>
