<?xml version="1.0" encoding="UTF-8" standalone="no"?>
<!DOCTYPE svg PUBLIC "-//W3C//DTD SVG 1.1//EN"
 "http://www.w3.org/Graphics/SVG/1.1/DTD/svg11.dtd">
<!-- Generated by graphviz version 2.47.1 (20210417.1919)
 -->
<!-- Title: state_machine Pages: 1 -->
<svg width="936pt" height="232pt"
 viewBox="0.00 0.00 936.00 231.92" xmlns="http://www.w3.org/2000/svg" xmlns:xlink="http://www.w3.org/1999/xlink">
<g id="graph0" class="graph" transform="scale(0.71 0.71) rotate(0) translate(4 321.69)">
<title>state_machine</title>
<polygon fill="white" stroke="transparent" points="-4,4 -4,-321.69 1310.44,-321.69 1310.44,4 -4,4"/>
<!-- Running.False, HasTodos.True, HasActiveTodos.True -->
<g id="node1" class="node">
<title>Running.False, HasTodos.True, HasActiveTodos.True</title>
<ellipse fill="none" stroke="black" cx="98.99" cy="-60.21" rx="98.99" ry="37.45"/>
<text text-anchor="middle" x="98.99" y="-71.51" font-family="Times,serif" font-size="14.00">Running.False</text>
<text text-anchor="middle" x="98.99" y="-56.51" font-family="Times,serif" font-size="14.00"> HasTodos.True</text>
<text text-anchor="middle" x="98.99" y="-41.51" font-family="Times,serif" font-size="14.00"> HasActiveTodos.True</text>
</g>
<!-- Running.True, HasTodos.True, HasActiveTodos.True -->
<g id="node2" class="node">
<title>Running.True, HasTodos.True, HasActiveTodos.True</title>
<ellipse fill="none" stroke="black" cx="473.98" cy="-115.21" rx="98.99" ry="37.45"/>
<text text-anchor="middle" x="473.98" y="-126.51" font-family="Times,serif" font-size="14.00">Running.True</text>
<text text-anchor="middle" x="473.98" y="-111.51" font-family="Times,serif" font-size="14.00"> HasTodos.True</text>
<text text-anchor="middle" x="473.98" y="-96.51" font-family="Times,serif" font-size="14.00"> HasActiveTodos.True</text>
</g>
<!-- Running.False, HasTodos.True, HasActiveTodos.True&#45;&gt;Running.True, HasTodos.True, HasActiveTodos.True -->
<g id="edge1" class="edge">
<title>Running.False, HasTodos.True, HasActiveTodos.True&#45;&gt;Running.True, HasTodos.True, HasActiveTodos.True</title>
<path fill="none" stroke="black" d="M175.62,-83.98C188.97,-87.53 202.81,-90.8 215.99,-93.21 264.62,-102.13 319.1,-107.44 365.34,-110.61"/>
<polygon fill="black" stroke="black" points="365.17,-114.1 375.38,-111.27 365.63,-107.12 365.17,-114.1"/>
<text text-anchor="middle" x="286.49" y="-113.01" font-family="Times,serif" font-size="14.00">java &#45;jar apichallenges.jar</text>
</g>
<!-- Running.True, HasTodos.True, HasActiveTodos.True&#45;&gt;Running.False, HasTodos.True, HasActiveTodos.True -->
<g id="edge2" class="edge">
<title>Running.True, HasTodos.True, HasActiveTodos.True&#45;&gt;Running.False, HasTodos.True, HasActiveTodos.True</title>
<path fill="none" stroke="black" d="M405.81,-87.83C390.04,-82.43 373.12,-77.43 356.99,-74.21 308.72,-64.57 254.4,-60.64 208.18,-59.28"/>
<polygon fill="black" stroke="black" points="208.23,-55.78 198.14,-59.02 208.05,-62.78 208.23,-55.78"/>
<text text-anchor="middle" x="286.49" y="-78.01" font-family="Times,serif" font-size="14.00">Shutdown</text>
</g>
<!-- Running.True, HasTodos.True, HasActiveTodos.True&#45;&gt;Running.True, HasTodos.True, HasActiveTodos.True -->
<g id="edge3" class="edge">
<title>Running.True, HasTodos.True, HasActiveTodos.True&#45;&gt;Running.True, HasTodos.True, HasActiveTodos.True</title>
<path fill="none" stroke="black" d="M467.06,-152.81C467.43,-162.96 469.73,-170.69 473.98,-170.69 476.64,-170.69 478.54,-167.67 479.68,-162.93"/>
<polygon fill="black" stroke="black" points="483.18,-163.16 480.91,-152.81 476.23,-162.31 483.18,-163.16"/>
<text text-anchor="middle" x="473.98" y="-174.49" font-family="Times,serif" font-size="14.00">AddActiveTodo</text>
</g>
<!-- Running.True, HasTodos.True, HasActiveTodos.True&#45;&gt;Running.True, HasTodos.True, HasActiveTodos.True -->
<g id="edge4" class="edge">
<title>Running.True, HasTodos.True, HasActiveTodos.True&#45;&gt;Running.True, HasTodos.True, HasActiveTodos.True</title>
<path fill="none" stroke="black" d="M460.49,-152.64C458.51,-171.65 463.01,-188.69 473.98,-188.69 482.9,-188.69 487.54,-177.44 487.91,-163.03"/>
<polygon fill="black" stroke="black" points="491.39,-162.49 487.48,-152.64 484.4,-162.78 491.39,-162.49"/>
<text text-anchor="middle" x="473.98" y="-192.49" font-family="Times,serif" font-size="14.00">AddResolvedTodo</text>
</g>
<!-- Running.True, HasTodos.True, HasActiveTodos.True&#45;&gt;Running.True, HasTodos.True, HasActiveTodos.True -->
<g id="edge5" class="edge">
<title>Running.True, HasTodos.True, HasActiveTodos.True&#45;&gt;Running.True, HasTodos.True, HasActiveTodos.True</title>
<path fill="none" stroke="black" d="M455.42,-152.32C449.16,-179.48 455.35,-206.69 473.98,-206.69 490.29,-206.69 497.07,-185.86 494.31,-162.46"/>
<polygon fill="black" stroke="black" points="497.71,-161.57 492.55,-152.32 490.82,-162.77 497.71,-161.57"/>
<text text-anchor="middle" x="473.98" y="-210.49" font-family="Times,serif" font-size="14.00">DeleteLessThanAllTodos</text>
</g>
<!-- Running.True, HasTodos.True, HasActiveTodos.True&#45;&gt;Running.True, HasTodos.True, HasActiveTodos.True -->
<g id="edge7" class="edge">
<title>Running.True, HasTodos.True, HasActiveTodos.True&#45;&gt;Running.True, HasTodos.True, HasActiveTodos.True</title>
<path fill="none" stroke="black" d="M451.52,-151.94C439.69,-186.78 447.17,-224.69 473.98,-224.69 498.28,-224.69 506.71,-193.56 499.27,-161.79"/>
<polygon fill="black" stroke="black" points="502.57,-160.59 496.45,-151.94 495.84,-162.52 502.57,-160.59"/>
<text text-anchor="middle" x="473.98" y="-228.49" font-family="Times,serif" font-size="14.00">ResolveLessThanAllActiveTodos</text>
</g>
<!-- Running.True, HasTodos.True, HasActiveTodos.True&#45;&gt;Running.True, HasTodos.True, HasActiveTodos.True -->
<g id="edge9" class="edge">
<title>Running.True, HasTodos.True, HasActiveTodos.True&#45;&gt;Running.True, HasTodos.True, HasActiveTodos.True</title>
<path fill="none" stroke="black" d="M448.38,-151.75C430.21,-193.88 438.75,-242.69 473.98,-242.69 506.61,-242.69 516.34,-200.86 503.19,-161.22"/>
<polygon fill="black" stroke="black" points="506.42,-159.85 499.59,-151.75 499.87,-162.34 506.42,-159.85"/>
<text text-anchor="middle" x="473.98" y="-246.49" font-family="Times,serif" font-size="14.00">ActivateAnyResolvedTodos</text>
</g>
<!-- Running.True, HasTodos.False, HasActiveTodos.False -->
<g id="node3" class="node">
<title>Running.True, HasTodos.False, HasActiveTodos.False</title>
<ellipse fill="none" stroke="black" cx="1205.33" cy="-101.21" rx="101.23" ry="37.45"/>
<text text-anchor="middle" x="1205.33" y="-112.51" font-family="Times,serif" font-size="14.00">Running.True</text>
<text text-anchor="middle" x="1205.33" y="-97.51" font-family="Times,serif" font-size="14.00"> HasTodos.False</text>
<text text-anchor="middle" x="1205.33" y="-82.51" font-family="Times,serif" font-size="14.00"> HasActiveTodos.False</text>
</g>
<!-- Running.True, HasTodos.True, HasActiveTodos.True&#45;&gt;Running.True, HasTodos.False, HasActiveTodos.False -->
<g id="edge6" class="edge">
<title>Running.True, HasTodos.True, HasActiveTodos.True&#45;&gt;Running.True, HasTodos.False, HasActiveTodos.False</title>
<path fill="none" stroke="black" d="M538.69,-143.64C555.41,-150.07 573.62,-156.18 590.98,-160.21 753.11,-197.92 800.62,-200.1 965.21,-175.21 1020.27,-166.89 1080.12,-148.36 1126.17,-131.92"/>
<polygon fill="black" stroke="black" points="1127.56,-135.14 1135.78,-128.45 1125.18,-128.56 1127.56,-135.14"/>
<text text-anchor="middle" x="864.1" y="-195.01" font-family="Times,serif" font-size="14.00">DeleteAllTodos</text>
</g>
<!-- Running.True, HasTodos.True, HasActiveTodos.False -->
<g id="node4" class="node">
<title>Running.True, HasTodos.True, HasActiveTodos.False</title>
<ellipse fill="none" stroke="black" cx="864.1" cy="-63.21" rx="101.23" ry="37.45"/>
<text text-anchor="middle" x="864.1" y="-74.51" font-family="Times,serif" font-size="14.00">Running.True</text>
<text text-anchor="middle" x="864.1" y="-59.51" font-family="Times,serif" font-size="14.00"> HasTodos.True</text>
<text text-anchor="middle" x="864.1" y="-44.51" font-family="Times,serif" font-size="14.00"> HasActiveTodos.False</text>
</g>
<!-- Running.True, HasTodos.True, HasActiveTodos.True&#45;&gt;Running.True, HasTodos.True, HasActiveTodos.False -->
<g id="edge8" class="edge">
<title>Running.True, HasTodos.True, HasActiveTodos.True&#45;&gt;Running.True, HasTodos.True, HasActiveTodos.False</title>
<path fill="none" stroke="black" d="M559.99,-133.86C613.86,-142.37 684.53,-147.37 744.98,-131.21 767.38,-125.23 789.94,-113.86 809.25,-102.11"/>
<polygon fill="black" stroke="black" points="811.27,-104.97 817.88,-96.7 807.55,-99.04 811.27,-104.97"/>
<text text-anchor="middle" x="667.98" y="-145.01" font-family="Times,serif" font-size="14.00">ResolveAllActiveTodos</text>
</g>
<!-- Running.True, HasTodos.False, HasActiveTodos.False&#45;&gt;Running.False, HasTodos.True, HasActiveTodos.True -->
<g id="edge10" class="edge">
<title>Running.True, HasTodos.False, HasActiveTodos.False&#45;&gt;Running.False, HasTodos.True, HasActiveTodos.True</title>
<path fill="none" stroke="black" d="M1142.08,-71.86C1094.79,-51.43 1027.48,-26.28 965.21,-17.21 689.7,22.9 360.2,-17.49 198.88,-42.92"/>
<polygon fill="black" stroke="black" points="198.29,-39.47 188.97,-44.5 199.39,-46.39 198.29,-39.47"/>
<text text-anchor="middle" x="667.98" y="-7.01" font-family="Times,serif" font-size="14.00">Shutdown</text>
</g>
<!-- Running.True, HasTodos.False, HasActiveTodos.False&#45;&gt;Running.True, HasTodos.True, HasActiveTodos.True -->
<g id="edge11" class="edge">
<title>Running.True, HasTodos.False, HasActiveTodos.False&#45;&gt;Running.True, HasTodos.True, HasActiveTodos.True</title>
<path fill="none" stroke="black" d="M1156.41,-134.2C1135.51,-147.58 1110.31,-162.39 1086.21,-173.21 1034.91,-196.25 1020.83,-201.9 965.21,-210.21 800.43,-234.84 747.81,-244.48 590.98,-188.21 568.54,-180.16 545.91,-167.24 526.66,-154.48"/>
<polygon fill="black" stroke="black" points="528.59,-151.56 518.35,-148.84 524.66,-157.35 528.59,-151.56"/>
<text text-anchor="middle" x="864.1" y="-233.01" font-family="Times,serif" font-size="14.00">AddActiveTodo</text>
</g>
<!-- Running.True, HasTodos.False, HasActiveTodos.False&#45;&gt;Running.True, HasTodos.True, HasActiveTodos.False -->
<g id="edge12" class="edge">
<title>Running.True, HasTodos.False, HasActiveTodos.False&#45;&gt;Running.True, HasTodos.True, HasActiveTodos.False</title>
<path fill="none" stroke="black" d="M1132.68,-75.03C1117.53,-70.55 1101.5,-66.59 1086.21,-64.21 1049.98,-58.59 1010,-57.02 974.12,-57.27"/>
<polygon fill="black" stroke="black" points="974.07,-53.77 964.11,-57.38 974.15,-60.77 974.07,-53.77"/>
<text text-anchor="middle" x="1034.71" y="-68.01" font-family="Times,serif" font-size="14.00">AddResolvedTodo</text>
</g>
<!-- Running.True, HasTodos.True, HasActiveTodos.False&#45;&gt;Running.False, HasTodos.True, HasActiveTodos.True -->
<g id="edge13" class="edge">
<title>Running.True, HasTodos.True, HasActiveTodos.False&#45;&gt;Running.False, HasTodos.True, HasActiveTodos.True</title>
<path fill="none" stroke="black" d="M763.54,-58.86C757.26,-58.63 751.03,-58.41 744.98,-58.21 580.62,-52.82 539.43,-52.42 374.99,-54.21 320.04,-54.81 258.93,-56.09 208.3,-57.3"/>
<polygon fill="black" stroke="black" points="207.9,-53.81 197.99,-57.56 208.07,-60.81 207.9,-53.81"/>
<text text-anchor="middle" x="473.98" y="-58.01" font-family="Times,serif" font-size="14.00">Shutdown</text>
</g>
<!-- Running.True, HasTodos.True, HasActiveTodos.False&#45;&gt;Running.True, HasTodos.True, HasActiveTodos.True -->
<g id="edge14" class="edge">
<title>Running.True, HasTodos.True, HasActiveTodos.False&#45;&gt;Running.True, HasTodos.True, HasActiveTodos.True</title>
<path fill="none" stroke="black" d="M782.78,-85.52C770.2,-88.46 757.29,-91.16 744.98,-93.21 691.92,-102.05 632.38,-107.38 582.74,-110.58"/>
<polygon fill="black" stroke="black" points="582.39,-107.09 572.63,-111.21 582.83,-114.08 582.39,-107.09"/>
<text text-anchor="middle" x="667.98" y="-113.01" font-family="Times,serif" font-size="14.00">AddActiveTodo</text>
</g>
<!-- Running.True, HasTodos.True, HasActiveTodos.False&#45;&gt;Running.True, HasTodos.True, HasActiveTodos.True -->
<g id="edge18" class="edge">
<title>Running.True, HasTodos.True, HasActiveTodos.False&#45;&gt;Running.True, HasTodos.True, HasActiveTodos.True</title>
<path fill="none" stroke="black" d="M763.08,-60.14C711.29,-60.34 647.28,-63.38 590.98,-74.21 578.03,-76.71 564.57,-80.38 551.61,-84.52"/>
<polygon fill="black" stroke="black" points="550.21,-81.3 541.82,-87.77 552.41,-87.95 550.21,-81.3"/>
<text text-anchor="middle" x="667.98" y="-78.01" font-family="Times,serif" font-size="14.00">ActivateAnyResolvedTodos</text>
</g>
<!-- Running.True, HasTodos.True, HasActiveTodos.False&#45;&gt;Running.True, HasTodos.False, HasActiveTodos.False -->
<g id="edge17" class="edge">
<title>Running.True, HasTodos.True, HasActiveTodos.False&#45;&gt;Running.True, HasTodos.False, HasActiveTodos.False</title>
<path fill="none" stroke="black" d="M959.19,-76.26C967.31,-77.3 975.4,-78.3 983.21,-79.21 1020.25,-83.56 1060.84,-87.76 1097.02,-91.31"/>
<polygon fill="black" stroke="black" points="1096.81,-94.8 1107.1,-92.29 1097.49,-87.84 1096.81,-94.8"/>
<text text-anchor="middle" x="1034.71" y="-94.01" font-family="Times,serif" font-size="14.00">DeleteAllTodos</text>
</g>
<!-- Running.True, HasTodos.True, HasActiveTodos.False&#45;&gt;Running.True, HasTodos.True, HasActiveTodos.False -->
<g id="edge15" class="edge">
<title>Running.True, HasTodos.True, HasActiveTodos.False&#45;&gt;Running.True, HasTodos.True, HasActiveTodos.False</title>
<path fill="none" stroke="black" d="M848.24,-100.29C848.93,-110.7 854.22,-118.69 864.1,-118.69 870.42,-118.69 874.87,-115.41 877.43,-110.32"/>
<polygon fill="black" stroke="black" points="880.9,-110.84 879.95,-100.29 874.12,-109.13 880.9,-110.84"/>
<text text-anchor="middle" x="864.1" y="-122.49" font-family="Times,serif" font-size="14.00">AddResolvedTodo</text>
</g>
<!-- Running.True, HasTodos.True, HasActiveTodos.False&#45;&gt;Running.True, HasTodos.True, HasActiveTodos.False -->
<g id="edge16" class="edge">
<title>Running.True, HasTodos.True, HasActiveTodos.False&#45;&gt;Running.True, HasTodos.True, HasActiveTodos.False</title>
<path fill="none" stroke="black" d="M833.64,-99.13C828.21,-118.73 838.36,-136.69 864.1,-136.69 885.2,-136.69 895.83,-124.61 895.97,-109.44"/>
<polygon fill="black" stroke="black" points="899.38,-108.56 894.55,-99.13 892.45,-109.51 899.38,-108.56"/>
<text text-anchor="middle" x="864.1" y="-140.49" font-family="Times,serif" font-size="14.00">DeleteLessThanAllTodos</text>
</g>
</g>
</svg>
